<?xml version="1.0" encoding="utf-8"?>
<!-- Generator: Adobe Illustrator 26.0.2, SVG Export Plug-In . SVG Version: 6.00 Build 0)  -->
<svg version="1.1" id="Layer_1" xmlns="http://www.w3.org/2000/svg" xmlns:xlink="http://www.w3.org/1999/xlink" x="0px" y="0px"
	 viewBox="0 0 2458 512" style="enable-background:new 0 0 2458 512;" xml:space="preserve">
<style type="text/css">
	.st0{fill:url(#SVGID_1_);}
	.st1{fill:url(#SVGID_00000066506633830709475140000008653878102521544620_);}
	.st2{fill:url(#SVGID_00000034079251271720485260000017805685808916451473_);}
	.st3{display:none;fill:url(#SVGID_00000084509654786719423950000016914270848922212789_);}
	.st4{display:none;fill:url(#SVGID_00000044872275994846737480000010308102705763144068_);}
	.st5{display:none;opacity:0.27;fill:url(#SVGID_00000119109924475346437460000005461474200824430725_);}
	.st6{fill:#EDEDED;stroke:#EEEEEE;stroke-width:8;}
</style>
<g>
	
		<linearGradient id="SVGID_1_" gradientUnits="userSpaceOnUse" x1="50.5" y1="378.896" x2="352.2765" y2="378.896" gradientTransform="matrix(1 0 0 -1 0 511.8898)">
		<stop  offset="1.082549e-07" style="stop-color:#4778BB"/>
		<stop  offset="1" style="stop-color:#3FC6F1"/>
	</linearGradient>
	<path class="st0" d="M343.6,93.6L76,246.2c-11.4,6.5-25.5-1.7-25.5-14.8v-81.8c0-6,3.2-11.6,8.4-14.7l194.5-115
		c5.4-3.2,12.1-3.2,17.5,0.1L344,64.1C355.2,70.9,355,87.1,343.6,93.6z"/>
	
		<linearGradient id="SVGID_00000174564444922536387970000011520189795549110675_" gradientUnits="userSpaceOnUse" x1="50.5" y1="226.6158" x2="441.2501" y2="226.6158" gradientTransform="matrix(1 0 0 -1 0 511.8898)">
		<stop  offset="1.082549e-07" style="stop-color:#4778BB"/>
		<stop  offset="1" style="stop-color:#3FC6F1"/>
	</linearGradient>
	<path style="fill:url(#SVGID_00000174564444922536387970000011520189795549110675_);" d="M128.7,427.8l-69.6-39.5
		c-5.3-3-8.6-8.7-8.6-14.9v-48.6c0-6.1,3.2-11.7,8.5-14.7l286.4-167.3c5.4-3.1,12-3.1,17.3,0.1l70.2,41.6
		c11.2,6.6,11.1,22.8-0.1,29.4L162.7,372.1c-5.2,3.1-8.4,8.7-8.4,14.7v26.1C154.2,426,140.1,434.3,128.7,427.8z"/>
	
		<linearGradient id="SVGID_00000011032269227295901060000007213858853103585457_" gradientUnits="userSpaceOnUse" x1="200.1" y1="105.844" x2="440.6626" y2="105.844" gradientTransform="matrix(1 0 0 -1 0 511.8898)">
		<stop  offset="1.082549e-07" style="stop-color:#4778BB"/>
		<stop  offset="1" style="stop-color:#3FC6F1"/>
	</linearGradient>
	<path style="fill:url(#SVGID_00000011032269227295901060000007213858853103585457_);" d="M200.1,459.6v-47c0-6.1,3.3-11.8,8.6-14.9
		l136.2-77.4c5.3-3,11.7-3,16.9,0l70.3,40.4c11.4,6.5,11.4,22.9,0.1,29.6L258.9,491.7c-5.1,3-11.3,3.1-16.6,0.4l-33.1-17.4
		C203.6,471.8,200.1,465.9,200.1,459.6z"/>
	
		<linearGradient id="SVGID_00000067202725044131332640000006515394985471967419_" gradientUnits="userSpaceOnUse" x1="331.8333" y1="473.2254" x2="234.7939" y2="417.1997" gradientTransform="matrix(1 0 0 -1 0 511.8898)">
		<stop  offset="0" style="stop-color:#000000"/>
		<stop  offset="1" style="stop-color:#000000;stop-opacity:0"/>
	</linearGradient>
	<path style="display:none;fill:url(#SVGID_00000067202725044131332640000006515394985471967419_);" d="M344,64.1l-73.1-44.2
		c-3-1.8-6.3-2.5-9.6-2.3v123l82.4-47C355,87,355.2,70.8,344,64.1z"/>
	
		<linearGradient id="SVGID_00000036210081351538415610000004859523731892931983_" gradientUnits="userSpaceOnUse" x1="421.7014" y1="351.1588" x2="326.2326" y2="296.0398" gradientTransform="matrix(1 0 0 -1 0 511.8898)">
		<stop  offset="0" style="stop-color:#000000"/>
		<stop  offset="1" style="stop-color:#000000;stop-opacity:0"/>
	</linearGradient>
	<path style="display:none;fill:url(#SVGID_00000036210081351538415610000004859523731892931983_);" d="M432.8,184.4l-70.2-41.6
		c-3.2-1.9-6.8-2.5-10.3-2.2V261l80.5-47.1C443.9,207.2,444,191,432.8,184.4z"/>
	
		<linearGradient id="SVGID_00000046340273452363392020000008899194959465427852_" gradientUnits="userSpaceOnUse" x1="421.5945" y1="174.1471" x2="326.5574" y2="119.2773" gradientTransform="matrix(1 0 0 -1 0 511.8898)">
		<stop  offset="0" style="stop-color:#000000"/>
		<stop  offset="1" style="stop-color:#000000;stop-opacity:0"/>
	</linearGradient>
	<path style="display:none;opacity:0.27;fill:url(#SVGID_00000046340273452363392020000008899194959465427852_);" d="M432.2,360.8
		l-70.3-40.4c-3-1.7-6.3-2.3-9.6-2.1v118.9l80-46.8C443.6,383.7,443.6,367.3,432.2,360.8z"/>
</g>
<g>
	<path class="st6" d="M589.1,365.9V145.6h130.6V181h-94.6v55.8h76v34.7h-76v58.9h94.6v35.4H589.1V365.9z"/>
	<path class="st6" d="M853.4,365.9v-87.5c0-11.4-2.7-20.6-8.2-27.8c-5.5-7.1-13.3-10.7-23.4-10.7c-7.4,0-14.1,2-20,6
		s-10.4,9.7-13.5,16.9v103h-34.1v-155h34.1v14.3c9.9-11.2,23.5-16.8,40.6-16.8c20.1,0,35.4,7.7,45.9,23c11.8-15.3,28.7-23,50.9-23
		c19.2,0,34.1,6,44.7,18.1s15.8,28.1,15.8,47.9v91.5h-34.1v-87.5c0-11.6-2.7-20.9-8.1-27.9c-5.4-7-13.1-10.5-23.3-10.5
		c-15.5,0-26.8,8.1-33.8,24.2c0.4,4.6,0.6,8,0.6,10.2v91.5L853.4,365.9L853.4,365.9z"/>
	<path class="st6" d="M1155.9,345.1c-15.5,15.5-34.6,23.3-57.4,23.3s-41.9-7.8-57.4-23.3s-23.3-34.4-23.3-56.8
		c0-22.3,7.8-41.3,23.3-56.8s34.6-23.3,57.4-23.3c22.7,0,41.9,7.8,57.4,23.3s23.3,34.4,23.3,56.8
		C1179.2,310.7,1171.4,329.6,1155.9,345.1z M1065.5,322.8c8.6,9.1,19.6,13.7,33,13.7s24.4-4.5,32.9-13.7
		c8.5-9.1,12.7-20.6,12.7-34.4c0-13.9-4.2-25.3-12.7-34.4s-19.4-13.7-32.9-13.7c-13.4,0-24.5,4.6-33,13.7
		c-8.6,9.1-12.9,20.6-12.9,34.4C1052.6,302.2,1056.9,313.7,1065.5,322.8z"/>
	<path class="st6" d="M1268.2,368.4l-85-157.6h39.1l46.2,90.9l46.2-90.9h38.8L1268.2,368.4z"/>
	<path class="st6" d="M1476.4,365.9v-15.2c-10.3,11.8-24.9,17.7-43.7,17.7c-18.8,0-33.9-6-45.1-18c-11.3-12-16.9-28-16.9-48.1v-91.5
		h34.1v87.5c0,11.6,3,20.9,9,27.9s14.5,10.5,25.4,10.5c18.2,0,30.6-8.5,37.2-25.4V210.8h34.1v155.1L1476.4,365.9L1476.4,365.9z"/>
	<path class="st6" d="M1553.9,365.9V210.8h34.1v16.4c9.9-12.2,23.3-18.3,40-18.3c5.4,0,9.7,0.5,13,1.6v35.4
		c-4.8-2.1-10.8-3.1-18-3.1c-16.1,0-27.8,6.4-35.1,19.2v103.9H1553.9z"/>
	<path class="st6" d="M1839.7,368.4c-31.4,0-58.1-10.9-79.9-32.6s-32.7-48.4-32.7-80s10.9-58.3,32.7-80
		c21.8-21.7,48.4-32.6,79.9-32.6c18.4,0,35.5,4.1,51.3,12.3s28.5,18.8,38,31.8l-26.4,22.6c-6.8-9.9-15.7-17.7-26.5-23.4
		c-10.9-5.7-23-8.5-36.5-8.5c-21.7,0-39.8,7.5-54.3,22.5s-21.7,33.5-21.7,55.4s7.2,40.4,21.7,55.4s32.6,22.5,54.3,22.5
		c13.4,0,25.6-2.8,36.5-8.5s19.7-13.5,26.5-23.4l26.4,22.6c-9.5,13-22.2,23.6-38,31.8C1875.2,364.3,1858.1,368.4,1839.7,368.4z"/>
	<path class="st6" d="M1958.5,365.9V145.6h34.1v79.7c10.1-11.4,24.7-17.1,43.7-17.1c19,0,34.2,6,45.6,18.1s17.1,28.1,17.1,47.9v91.5
		h-34.1v-87.5c0-11.6-3.1-20.9-9.2-27.9c-6.1-7-14.8-10.5-26.2-10.5c-17.8,0-30.1,8.5-36.9,25.4v100.5h-34.1V365.9z"/>
	<path class="st6" d="M2252.3,365.9v-13c-11.6,10.3-26.2,15.5-43.7,15.5c-22.3,0-40.9-7.8-55.5-23.3c-14.7-15.5-22-34.4-22-56.8
		c0-22.3,7.3-41.3,22-56.8s33.2-23.3,55.5-23.3c17.4,0,32,5.3,43.7,15.8v-13.3h34.1v155.1L2252.3,365.9L2252.3,365.9z M2211.9,336.7
		c17.4,0,30.8-6.8,40.3-20.5v-55.5c-9.3-13.9-22.8-20.8-40.3-20.8c-13.4,0-24.5,4.6-33.2,13.8c-8.7,9.2-13,20.7-13,34.6
		s4.3,25.4,13,34.6C2187.4,332.1,2198.5,336.7,2211.9,336.7z"/>
	<path class="st6" d="M2419.2,365.9h-30.7c-14.9,0-26.5-3.9-34.7-11.8c-8.3-7.9-12.4-19.2-12.4-34.1v-78.8h-23l-7.4-30.4h30.4v-29.5
		l34.1-17.1v46.5h47.8l-7.4,30.4h-40.3v71.4c0,7.7,1.6,13.3,4.8,16.9s8.6,5.4,16.3,5.4h22.6v31.1H2419.2z"/>
</g>
</svg>
