<?xml version="1.0" encoding="utf-8"?>
<!-- Generator: Adobe Illustrator 26.0.2, SVG Export Plug-In . SVG Version: 6.00 Build 0)  -->
<svg version="1.1" id="Layer_1" xmlns="http://www.w3.org/2000/svg" xmlns:xlink="http://www.w3.org/1999/xlink" x="0px" y="0px"
	 viewBox="0 0 2458 512" style="enable-background:new 0 0 2458 512;" xml:space="preserve">
<style type="text/css">
	.st0{fill:#273444;stroke:#273445;stroke-width:8;}
	.st1{display:none;}
	.st2{display:inline;fill:url(#SVGID_1_);}
	.st3{display:inline;fill:url(#SVGID_00000054975788256971486980000017005253455366177459_);}
	.st4{display:inline;fill:url(#SVGID_00000005254805182954264540000011969030382357440388_);}
	.st5{display:inline;fill:url(#SVGID_00000118374409631559036640000007958057779669394823_);}
	.st6{display:inline;fill:url(#SVGID_00000152960846779481532540000006320566590679225269_);}
	.st7{display:inline;fill:url(#SVGID_00000016067747308992027010000005904299444146987426_);}
	.st8{fill:url(#SVGID_00000085209722717705682990000009486859260841046697_);}
	.st9{fill:url(#SVGID_00000034809289905079641260000016858988174499044022_);}
	.st10{fill:url(#SVGID_00000019673270937435136590000004698523536034580920_);}
	.st11{display:none;fill:url(#SVGID_00000015334939644253323420000016171756380890599844_);}
	.st12{display:none;fill:url(#SVGID_00000154384782985827629960000008915710375628314251_);}
	.st13{display:none;fill:url(#SVGID_00000142860919360928810620000007348400442226177928_);}
</style>
<desc>Created with Sketch.</desc>
<g>
	<path class="st0" d="M590.9,361.2V141h130.6v35.4h-94.6v55.8h76v34.7h-76v58.9h94.6v35.4L590.9,361.2L590.9,361.2z"/>
	<path class="st0" d="M855.2,361.2v-87.5c0-11.4-2.7-20.6-8.2-27.8c-5.5-7.1-13.3-10.7-23.4-10.7c-7.4,0-14.1,2-20,6
		s-10.4,9.7-13.5,16.9v103H756v-155h34.1v14.3c9.9-11.2,23.5-16.8,40.6-16.8c20.1,0,35.4,7.7,45.9,23c11.8-15.3,28.7-23,50.9-23
		c19.2,0,34.1,6,44.7,18.1s15.8,28.1,15.8,47.9v91.5h-34.1v-87.5c0-11.6-2.7-20.9-8.1-27.9c-5.4-7-13.1-10.5-23.3-10.5
		c-15.5,0-26.8,8.1-33.8,24.2c0.4,4.6,0.6,8,0.6,10.2v91.5L855.2,361.2L855.2,361.2z"/>
	<path class="st0" d="M1157.7,340.5c-15.5,15.5-34.6,23.3-57.4,23.3s-41.9-7.8-57.4-23.3s-23.3-34.4-23.3-56.8
		c0-22.3,7.8-41.3,23.3-56.8s34.6-23.3,57.4-23.3c22.7,0,41.9,7.8,57.4,23.3s23.3,34.4,23.3,56.8
		C1181,306,1173.2,324.9,1157.7,340.5z M1067.3,318.1c8.6,9.1,19.6,13.7,33,13.7s24.4-4.5,32.9-13.7c8.5-9.1,12.7-20.6,12.7-34.4
		c0-13.9-4.2-25.3-12.7-34.4s-19.4-13.7-32.9-13.7c-13.4,0-24.5,4.6-33,13.7c-8.6,9.1-12.9,20.6-12.9,34.4S1058.7,309,1067.3,318.1z
		"/>
	<path class="st0" d="M1270,363.7l-85-157.6h39.1l46.2,90.9l46.2-90.9h38.8L1270,363.7z"/>
	<path class="st0" d="M1478.2,361.2V346c-10.3,11.8-24.9,17.7-43.7,17.7c-18.8,0-33.9-6-45.1-18c-11.3-12-16.9-28-16.9-48.1v-91.5
		h34.1v87.5c0,11.6,3,20.9,9,27.9s14.5,10.5,25.4,10.5c18.2,0,30.6-8.5,37.2-25.4V206.1h34.1v155.1H1478.2z"/>
	<path class="st0" d="M1555.8,361.2V206.1h34.1v16.4c9.9-12.2,23.3-18.3,40-18.3c5.4,0,9.7,0.5,13,1.6v35.4
		c-4.8-2.1-10.8-3.1-18-3.1c-16.1,0-27.8,6.4-35.1,19.2v103.9H1555.8z"/>
	<path class="st0" d="M1841.5,363.7c-31.4,0-58.1-10.9-79.9-32.6s-32.7-48.4-32.7-80s10.9-58.3,32.7-80
		c21.8-21.7,48.4-32.6,79.9-32.6c18.4,0,35.5,4.1,51.3,12.3s28.5,18.8,38,31.8l-26.4,22.6c-6.8-9.9-15.7-17.7-26.5-23.4
		c-10.9-5.7-23-8.5-36.5-8.5c-21.7,0-39.8,7.5-54.3,22.5s-21.7,33.5-21.7,55.4s7.2,40.4,21.7,55.4s32.6,22.5,54.3,22.5
		c13.4,0,25.6-2.8,36.5-8.5s19.7-13.5,26.5-23.4l26.4,22.6c-9.5,13-22.2,23.6-38,31.8C1877,359.6,1859.9,363.7,1841.5,363.7z"/>
	<path class="st0" d="M1960.3,361.2V141h34.1v79.7c10.1-11.4,24.7-17.1,43.7-17.1c19,0,34.2,6,45.6,18.1s17.1,28.1,17.1,47.9v91.5
		h-34.1v-87.5c0-11.6-3.1-20.9-9.2-27.9c-6.1-7-14.8-10.5-26.2-10.5c-17.8,0-30.1,8.5-36.9,25.4v100.5h-34.1V361.2z"/>
	<path class="st0" d="M2254.1,361.2v-13c-11.6,10.3-26.2,15.5-43.7,15.5c-22.3,0-40.9-7.8-55.5-23.3c-14.7-15.5-22-34.4-22-56.8
		c0-22.3,7.3-41.3,22-56.8s33.2-23.3,55.5-23.3c17.4,0,32,5.3,43.7,15.8V206h34.1v155.1L2254.1,361.2L2254.1,361.2z M2213.8,332.1
		c17.4,0,30.8-6.8,40.3-20.5v-55.5c-9.3-13.9-22.8-20.8-40.3-20.8c-13.4,0-24.5,4.6-33.2,13.8c-8.7,9.2-13,20.7-13,34.6
		s4.3,25.4,13,34.6C2189.3,327.5,2200.3,332.1,2213.8,332.1z"/>
	<path class="st0" d="M2421,361.2h-30.7c-14.9,0-26.5-3.9-34.7-11.8c-8.3-7.9-12.4-19.2-12.4-34.1v-78.8h-23l-7.4-30.4h30.4v-29.5
		l34.1-17.1V206h47.8l-7.4,30.4h-40.3v71.4c0,7.7,1.6,13.3,4.8,16.9s8.6,5.4,16.3,5.4h22.6v31.1L2421,361.2L2421,361.2z"/>
</g>
<g class="st1">
	
		<linearGradient id="SVGID_1_" gradientUnits="userSpaceOnUse" x1="60" y1="458.3939" x2="361.7015" y2="458.3939" gradientTransform="matrix(1 0 0 1 0 -330)">
		<stop  offset="1.082549e-07" style="stop-color:#4778BB"/>
		<stop  offset="1" style="stop-color:#3FC6F1"/>
	</linearGradient>
	<path class="st2" d="M353.1,88.9L85.5,241.6c-11.4,6.5-25.5-1.7-25.5-14.8V145c0-6,3.2-11.6,8.4-14.7l194.5-115
		c5.4-3.2,12.1-3.2,17.5,0.1l73.1,44.2C364.6,66.2,364.4,82.5,353.1,88.9z"/>
	
		<linearGradient id="SVGID_00000061469186256141803370000010641222190884117144_" gradientUnits="userSpaceOnUse" x1="60" y1="610.5814" x2="450.7501" y2="610.5814" gradientTransform="matrix(1 0 0 1 0 -330)">
		<stop  offset="1.082549e-07" style="stop-color:#4778BB"/>
		<stop  offset="1" style="stop-color:#3FC6F1"/>
	</linearGradient>
	<path style="display:inline;fill:url(#SVGID_00000061469186256141803370000010641222190884117144_);" d="M138.2,423.1l-69.6-39.5
		c-5.3-3-8.6-8.7-8.6-14.9v-48.6c0-6.1,3.2-11.7,8.5-14.7l286.4-167.3c5.4-3.1,12-3.1,17.3,0.1l70.2,41.6
		c11.2,6.6,11.1,22.8-0.1,29.4L172.1,367.5c-5.2,3.1-8.4,8.7-8.4,14.7v26.1C163.7,421.4,149.6,429.6,138.2,423.1z"/>
	
		<linearGradient id="SVGID_00000056396659208179757370000015643616655475603360_" gradientUnits="userSpaceOnUse" x1="209.6" y1="731.3959" x2="450.1626" y2="731.3959" gradientTransform="matrix(1 0 0 1 0 -330)">
		<stop  offset="1.082549e-07" style="stop-color:#4778BB"/>
		<stop  offset="1" style="stop-color:#3FC6F1"/>
	</linearGradient>
	<path style="display:inline;fill:url(#SVGID_00000056396659208179757370000015643616655475603360_);" d="M209.6,454.9v-47
		c0-6.1,3.3-11.8,8.6-14.9l136.2-77.4c5.3-3,11.7-3,16.9,0l70.3,40.4c11.4,6.5,11.4,22.9,0.1,29.6L268.4,487.1
		c-5.1,3-11.3,3.1-16.6,0.4l-33.1-17.4C213.1,467.1,209.6,461.3,209.6,454.9z"/>
	
		<linearGradient id="SVGID_00000048502491880045103500000011766228673025200262_" gradientUnits="userSpaceOnUse" x1="341.2874" y1="363.9909" x2="244.2939" y2="419.9902" gradientTransform="matrix(1 0 0 1 0 -330)">
		<stop  offset="0" style="stop-color:#000000"/>
		<stop  offset="1" style="stop-color:#000000;stop-opacity:0"/>
	</linearGradient>
	<path style="display:inline;fill:url(#SVGID_00000048502491880045103500000011766228673025200262_);" d="M353.5,59.4l-73.1-44.2
		c-3-1.8-6.3-2.5-9.6-2.3v123l82.4-47C364.4,82.4,364.6,66.1,353.5,59.4z"/>
	
		<linearGradient id="SVGID_00000029011337511262847670000007950790182446989468_" gradientUnits="userSpaceOnUse" x1="431.1779" y1="486.0447" x2="335.7326" y2="541.1501" gradientTransform="matrix(1 0 0 1 0 -330)">
		<stop  offset="0" style="stop-color:#000000"/>
		<stop  offset="1" style="stop-color:#000000;stop-opacity:0"/>
	</linearGradient>
	<path style="display:inline;fill:url(#SVGID_00000029011337511262847670000007950790182446989468_);" d="M442.3,179.7l-70.2-41.6
		c-3.2-1.9-6.8-2.5-10.3-2.2v120.4l80.5-47.1C453.4,202.6,453.5,186.4,442.3,179.7z"/>
	
		<linearGradient id="SVGID_00000128474688964481067980000000169239518296949422_" gradientUnits="userSpaceOnUse" x1="431.0632" y1="663.0609" x2="336.0574" y2="717.9125" gradientTransform="matrix(1 0 0 1 0 -330)">
		<stop  offset="0" style="stop-color:#000000"/>
		<stop  offset="1" style="stop-color:#000000;stop-opacity:0"/>
	</linearGradient>
	<path style="display:inline;fill:url(#SVGID_00000128474688964481067980000000169239518296949422_);" d="M441.7,356.1l-70.3-40.4
		c-3-1.7-6.3-2.3-9.6-2.1v118.9l80-46.8C453.1,379,453,362.6,441.7,356.1z"/>
</g>
<g>
	
		<linearGradient id="SVGID_00000061434831580356717390000001210813766958113410_" gradientUnits="userSpaceOnUse" x1="62.3" y1="383.396" x2="364.4395" y2="383.396" gradientTransform="matrix(1 0 0 -1 0 511.8898)">
		<stop  offset="1.082549e-07" style="stop-color:#4778BB"/>
		<stop  offset="1" style="stop-color:#3FC6F1"/>
	</linearGradient>
	<path style="fill:url(#SVGID_00000061434831580356717390000001210813766958113410_);" d="M355.8,89.1L87.9,241.8
		c-11.4,6.5-25.6-1.7-25.6-14.8v-81.9c0-6,3.2-11.6,8.4-14.7L265.5,15.3c5.4-3.2,12.2-3.2,17.5,0.1l73.2,44.2
		C367.4,66.3,367.1,82.6,355.8,89.1z"/>
	
		<linearGradient id="SVGID_00000090989674625482282960000004980215490912868015_" gradientUnits="userSpaceOnUse" x1="62.3" y1="230.9865" x2="453.3875" y2="230.9865" gradientTransform="matrix(1 0 0 -1 0 511.8898)">
		<stop  offset="1.082549e-07" style="stop-color:#4778BB"/>
		<stop  offset="1" style="stop-color:#3FC6F1"/>
	</linearGradient>
	<path style="fill:url(#SVGID_00000090989674625482282960000004980215490912868015_);" d="M140.7,423.6L71,384
		c-5.3-3-8.7-8.7-8.7-14.9v-48.6c0-6.1,3.2-11.7,8.5-14.8l286.6-167.4c5.4-3.1,12-3.1,17.3,0.1l70.3,41.7
		c11.2,6.6,11.2,22.9-0.1,29.5L174.7,367.9c-5.2,3.1-8.5,8.7-8.5,14.7v26.1C166.2,421.8,152.1,430,140.7,423.6z"/>
	
		<linearGradient id="SVGID_00000083788621213981207270000010096458056269459619_" gradientUnits="userSpaceOnUse" x1="212.2" y1="110.044" x2="453.1625" y2="110.044" gradientTransform="matrix(1 0 0 -1 0 511.8898)">
		<stop  offset="1.082549e-07" style="stop-color:#4778BB"/>
		<stop  offset="1" style="stop-color:#3FC6F1"/>
	</linearGradient>
	<path style="fill:url(#SVGID_00000083788621213981207270000010096458056269459619_);" d="M212.2,455.4v-47.1
		c0-6.1,3.3-11.8,8.7-14.9L357.2,316c5.3-3,11.7-3,17,0l70.4,40.5c11.4,6.5,11.4,23,0.1,29.6L271,487.6c-5.1,3-11.4,3.1-16.6,0.4
		l-33.1-17.4C215.7,467.6,212.2,461.7,212.2,455.4z"/>
	
		<linearGradient id="SVGID_00000088839806414280652890000001433095940281862050_" gradientUnits="userSpaceOnUse" x1="343.9529" y1="477.8867" x2="246.8723" y2="421.8372" gradientTransform="matrix(1 0 0 -1 0 511.8898)">
		<stop  offset="0" style="stop-color:#000000"/>
		<stop  offset="1" style="stop-color:#000000;stop-opacity:0"/>
	</linearGradient>
	<path style="display:none;fill:url(#SVGID_00000088839806414280652890000001433095940281862050_);" d="M356.2,59.5L283,15.3
		c-3-1.8-6.3-2.5-9.6-2.4V136l82.4-47C367.1,82.5,367.4,66.3,356.2,59.5z"/>
	
		<linearGradient id="SVGID_00000067950712993173577790000006650674264895779728_" gradientUnits="userSpaceOnUse" x1="433.9308" y1="355.7258" x2="338.4109" y2="300.5773" gradientTransform="matrix(1 0 0 -1 0 511.8898)">
		<stop  offset="0" style="stop-color:#000000"/>
		<stop  offset="1" style="stop-color:#000000;stop-opacity:0"/>
	</linearGradient>
	<path style="display:none;fill:url(#SVGID_00000067950712993173577790000006650674264895779728_);" d="M445.1,179.9l-70.3-41.7
		c-3.2-1.9-6.8-2.5-10.3-2.2v120.5l80.5-47.2C456.2,202.8,456.3,186.6,445.1,179.9z"/>
	
		<linearGradient id="SVGID_00000051350684071457340100000011787212366056435638_" gradientUnits="userSpaceOnUse" x1="433.7841" y1="178.491" x2="338.7357" y2="123.6149" gradientTransform="matrix(1 0 0 -1 0 511.8898)">
		<stop  offset="0" style="stop-color:#000000"/>
		<stop  offset="1" style="stop-color:#000000;stop-opacity:0"/>
	</linearGradient>
	<path style="display:none;fill:url(#SVGID_00000051350684071457340100000011787212366056435638_);" d="M444.4,356.5L374.1,316
		c-3-1.7-6.3-2.3-9.6-2.1v119l80.1-46.8C455.9,379.4,455.8,363,444.4,356.5z"/>
</g>
</svg>
