<?xml version="1.0" encoding="utf-8"?>
<!-- Generator: Adobe Illustrator 26.0.2, SVG Export Plug-In . SVG Version: 6.00 Build 0)  -->
<svg version="1.1" id="Layer_1" xmlns="http://www.w3.org/2000/svg" xmlns:xlink="http://www.w3.org/1999/xlink" x="0px" y="0px"
	 viewBox="0 0 16 16" style="enable-background:new 0 0 16 16;" xml:space="preserve">
<style type="text/css">
	.st0{fill:url(#SVGID_1_);}
	.st1{fill:url(#SVGID_00000064349506744175331560000007238682398228238218_);}
	.st2{fill:url(#SVGID_00000057128701457862644220000002499739268972884652_);}
	.st3{display:none;fill:url(#SVGID_00000108995190982388426190000013848914733060261566_);}
	.st4{display:none;fill:url(#SVGID_00000158006875093304188500000008238890777418985372_);}
	.st5{display:none;fill:url(#SVGID_00000003786634227582926170000016569850060837234602_);}
</style>
<g>
	
		<linearGradient id="SVGID_1_" gradientUnits="userSpaceOnUse" x1="2.0569" y1="334.2647" x2="11.2383" y2="334.2647" gradientTransform="matrix(1 0 0 1 0 -330)">
		<stop  offset="1.082549e-07" style="stop-color:#4778BB"/>
		<stop  offset="1" style="stop-color:#3FC6F1"/>
	</linearGradient>
	<path class="st0" d="M11,3.1L2.8,7.7C2.5,7.9,2.1,7.7,2.1,7.3V4.8c0-0.2,0.1-0.4,0.3-0.4l5.9-3.5c0.2-0.1,0.4-0.1,0.5,0L11,2.2
		C11.3,2.4,11.3,2.9,11,3.1z"/>
	
		<linearGradient id="SVGID_00000040572453380163504580000007342677441184468887_" gradientUnits="userSpaceOnUse" x1="2.0569" y1="338.8961" x2="13.9412" y2="338.8961" gradientTransform="matrix(1 0 0 1 0 -330)">
		<stop  offset="1.082549e-07" style="stop-color:#4778BB"/>
		<stop  offset="1" style="stop-color:#3FC6F1"/>
	</linearGradient>
	<path style="fill:url(#SVGID_00000040572453380163504580000007342677441184468887_);" d="M4.4,13.2L2.3,12
		c-0.2-0.1-0.3-0.3-0.3-0.5v-1.5c0-0.2,0.1-0.4,0.3-0.4L11,4.6c0.2-0.1,0.4-0.1,0.5,0l2.1,1.3C14,6,14,6.5,13.7,6.7l-8.2,4.8
		c-0.2,0.1-0.3,0.3-0.3,0.4v0.8C5.2,13.2,4.8,13.4,4.4,13.2z"/>
	
		<linearGradient id="SVGID_00000085227619280016749710000016006641945165837995_" gradientUnits="userSpaceOnUse" x1="6.612" y1="342.5713" x2="13.9344" y2="342.5713" gradientTransform="matrix(1 0 0 1 0 -330)">
		<stop  offset="1.082549e-07" style="stop-color:#4778BB"/>
		<stop  offset="1" style="stop-color:#3FC6F1"/>
	</linearGradient>
	<path style="fill:url(#SVGID_00000085227619280016749710000016006641945165837995_);" d="M6.6,14.2v-1.4c0-0.2,0.1-0.4,0.3-0.5
		L11,10c0.2-0.1,0.4-0.1,0.5,0l2.1,1.2c0.3,0.2,0.3,0.7,0,0.9l-5.3,3.1c-0.2,0.1-0.3,0.1-0.5,0l-1-0.5C6.7,14.6,6.6,14.4,6.6,14.2z"
		/>
	
		<linearGradient id="SVGID_00000001626548097471095610000018299647292978868890_" gradientUnits="userSpaceOnUse" x1="10.6157" y1="331.3933" x2="7.6656" y2="333.0965" gradientTransform="matrix(1 0 0 1 0 -330)">
		<stop  offset="0" style="stop-color:#000000"/>
		<stop  offset="1" style="stop-color:#000000;stop-opacity:0"/>
	</linearGradient>
	<path style="display:none;fill:url(#SVGID_00000001626548097471095610000018299647292978868890_);" d="M11,2.2L8.8,0.8
		C8.7,0.8,8.6,0.7,8.5,0.8v3.7L11,3.1C11.3,2.9,11.3,2.4,11,2.2z"/>
	
		<linearGradient id="SVGID_00000175295250117472407830000001754660363444051345_" gradientUnits="userSpaceOnUse" x1="13.35" y1="335.1055" x2="10.4473" y2="336.7814" gradientTransform="matrix(1 0 0 1 0 -330)">
		<stop  offset="0" style="stop-color:#000000"/>
		<stop  offset="1" style="stop-color:#000000;stop-opacity:0"/>
	</linearGradient>
	<path style="display:none;fill:url(#SVGID_00000175295250117472407830000001754660363444051345_);" d="M13.7,5.8l-2.1-1.3
		c-0.1-0.1-0.2-0.1-0.3-0.1v3.7l2.4-1.4C14,6.5,14,6,13.7,5.8z"/>
	
		<linearGradient id="SVGID_00000047027687414319376910000002048344647266042497_" gradientUnits="userSpaceOnUse" x1="13.3455" y1="340.4913" x2="10.4572" y2="342.1589" gradientTransform="matrix(1 0 0 1 0 -330)">
		<stop  offset="0" style="stop-color:#000000"/>
		<stop  offset="1" style="stop-color:#000000;stop-opacity:0"/>
	</linearGradient>
	<path style="display:none;fill:url(#SVGID_00000047027687414319376910000002048344647266042497_);" d="M13.7,11.2L11.5,10
		c-0.1-0.1-0.2-0.1-0.3-0.1v3.6l2.4-1.4C14,11.9,14,11.4,13.7,11.2z"/>
</g>
</svg>
